<?xml version="1.0" encoding="UTF-8"?>
<svg id="Layer_1" data-name="Layer 1" xmlns="http://www.w3.org/2000/svg" viewBox="0 0 196.5 94.91">
  <defs>
    <style>
      .cls-1 {
        fill: #f8b133;
      }

      .cls-1, .cls-2 {
        stroke-width: 0px;
      }

      .cls-2 {
        fill: #3c3c3b;
      }
    </style>
  </defs>
  <path class="cls-2" d="M84.45.09s-.08,0-.13,0h-25.91v23.32h.02c0,.13-.02.26-.02.4,0,3.51,2.85,6.36,6.36,6.36.09,0,.17,0,.25-.01h19.42c8.3,0,15.03-6.73,15.03-15.03S92.75.09,84.45.09Z"/>
  <path class="cls-2" d="M84.45,36.92s-.08,0-.13,0h-25.91v23.32h.02c0,.13-.02.26-.02.4,0,3.51,2.85,6.36,6.36,6.36.09,0,.17,0,.25-.01h19.42c8.3,0,15.03-6.73,15.03-15.03s-6.73-15.03-15.03-15.03Z"/>
  <path class="cls-1" d="M128.09,33.55l-20.05-20.05c-2.48-2.48-2.48-6.51,0-9,2.48-2.48,4.5-4.5,4.5-4.5l28.95,28.95s.07.06.1.09c2.48,2.48,2.48,6.51,0,9h0s0,0,0,0,0,0,0,0l-29.04,29.04s-2.01-2.01-4.5-4.5c-2.48-2.48-2.48-6.51,0-9l20.05-20.05Z"/>
  <path class="cls-2" d="M25.83,0c-3.51,0-6.36,2.85-6.36,6.36v54.35c0,3.51,2.85,6.36,6.36,6.36s6.36-2.85,6.36-6.36V6.37C32.19,2.85,29.35,0,25.83,0Z"/>
  <path class="cls-2" d="M45.3,0c-3.51,0-6.36,2.85-6.36,6.36v54.35c0,3.51,2.85,6.36,6.36,6.36s6.36-2.85,6.36-6.36V6.37C51.66,2.85,48.82,0,45.3,0Z"/>
  <path class="cls-2" d="M6.36,0H0v60.71c0,3.51,2.85,6.36,6.36,6.36s6.36-2.85,6.36-6.36V6.37C12.72,2.85,9.88,0,6.36,0Z"/>
  <g>
    <path class="cls-2" d="M11.05,94.71v-10.48l-4.78,6.95h-.07l-4.78-6.95v10.48h-.86v-12.07h.84l4.85,7.14,4.85-7.14h.84v12.07h-.9Z"/>
    <path class="cls-2" d="M25.63,94.71l-1.53-3.38h-7.12l-1.53,3.38h-.93l5.62-12.16h.86l5.62,12.16h-.98ZM20.54,83.53l-3.19,6.98h6.36l-3.17-6.98Z"/>
    <path class="cls-2" d="M31.66,94.88c-1.79,0-2.91-.93-3.66-2.26l.74-.47c.74,1.26,1.55,1.91,2.97,1.91s2.62-1.12,2.62-3.22v-8.21h.9v8.14c0,2.71-1.57,4.1-3.57,4.1Z"/>
    <path class="cls-2" d="M44.15,94.91c-3.66,0-6.05-2.91-6.05-6.21v-.03c0-3.29,2.43-6.24,6.09-6.24s6.05,2.91,6.05,6.21t0,.03c0,3.29-2.43,6.24-6.09,6.24ZM49.31,88.67c0-2.98-2.17-5.43-5.16-5.43s-5.12,2.41-5.12,5.4v.03c0,2.98,2.17,5.43,5.16,5.43s5.12-2.41,5.12-5.4v-.03Z"/>
    <path class="cls-2" d="M61.98,94.71l-3.85-5h-3.95v5h-.9v-12.07h5.07c2.6,0,4.31,1.41,4.31,3.43v.03c0,2.02-1.5,3.17-3.53,3.45l3.98,5.16h-1.14ZM61.78,86.1c0-1.62-1.28-2.64-3.47-2.64h-4.12v5.43h4.07c2.02,0,3.52-1.02,3.52-2.76v-.03Z"/>
    <path class="cls-2" d="M76.18,94.71h-5.24v-12.07h4.98c2.35,0,3.91,1.16,3.91,2.97v.03c0,1.64-1.07,2.47-2.05,2.86,1.45.38,2.72,1.21,2.72,2.88v.03c0,2.02-1.72,3.29-4.33,3.29ZM78.92,85.69c0-1.33-1.09-2.22-3.02-2.22h-4.07v4.74h3.98c1.81,0,3.1-.88,3.1-2.48v-.03ZM79.59,91.38c0-1.48-1.29-2.35-3.67-2.35h-4.09v4.84h4.38c2.07,0,3.38-.95,3.38-2.47v-.03Z"/>
    <path class="cls-2" d="M83.51,94.71v-12.07h.9v12.07h-.9Z"/>
    <path class="cls-2" d="M92.36,83.47v11.24h-.9v-11.24h-4.21v-.83h9.31v.83h-4.21Z"/>
  </g>
  <g>
    <path class="cls-1" d="M115.58,94.71l-1.1-2.71h-5.1l-1.1,2.71h-2.71l5.17-12.16h2.45l5.17,12.16h-2.78ZM111.92,85.74l-1.6,3.91h3.21l-1.6-3.91Z"/>
    <path class="cls-1" d="M125.1,94.91c-3.55,0-6.19-2.74-6.19-6.21v-.03c0-3.43,2.59-6.24,6.29-6.24,2.28,0,3.64.76,4.76,1.86l-1.69,1.95c-.93-.84-1.88-1.36-3.09-1.36-2.03,0-3.5,1.69-3.5,3.76v.03c0,2.07,1.43,3.79,3.5,3.79,1.38,0,2.22-.55,3.17-1.41l1.69,1.71c-1.24,1.33-2.62,2.16-4.95,2.16Z"/>
    <path class="cls-1" d="M141.15,94.71l-1.1-2.71h-5.1l-1.1,2.71h-2.71l5.17-12.16h2.45l5.17,12.16h-2.78ZM137.5,85.74l-1.6,3.91h3.21l-1.6-3.91Z"/>
    <path class="cls-1" d="M150.5,94.71h-4.71v-12.07h4.71c3.79,0,6.41,2.6,6.41,6v.03c0,3.4-2.62,6.04-6.41,6.04ZM154.14,88.67c0-2.14-1.47-3.64-3.64-3.64h-2.05v7.28h2.05c2.17,0,3.64-1.47,3.64-3.6v-.03Z"/>
    <path class="cls-1" d="M159.28,94.71v-12.07h9.1v2.36h-6.47v2.45h5.69v2.36h-5.69v2.53h6.55v2.36h-9.19Z"/>
    <path class="cls-1" d="M180.27,94.71v-7.88l-3.4,5.16h-.07l-3.36-5.1v7.83h-2.6v-12.07h2.86l3.17,5.1,3.17-5.1h2.86v12.07h-2.64Z"/>
    <path class="cls-1" d="M191.86,89.9v4.81h-2.66v-4.76l-4.64-7.31h3.1l2.88,4.85,2.93-4.85h3.02l-4.64,7.26Z"/>
  </g>
</svg>